<?xml version="1.0" encoding="UTF-8"?>
<svg width="100%" viewBox="0 0 1440 1522" version="1.1" xmlns="http://www.w3.org/2000/svg" xmlns:xlink="http://www.w3.org/1999/xlink">
    <title>bg</title>
    <defs>
        <rect id="path-1" x="0" y="0" width="1440" height="1522"></rect>
        <linearGradient x1="50%" y1="0%" x2="51.7228901%" y2="85.0716435%" id="linearGradient-3">
            <stop stop-color="#CCDAFB" offset="0%"></stop>
            <stop stop-color="#EDF2FF" offset="100%"></stop>
        </linearGradient>
        <linearGradient x1="50%" y1="0%" x2="51.8506164%" y2="85.0716435%" id="linearGradient-4">
            <stop stop-color="#CCDAFB" offset="0%"></stop>
            <stop stop-color="#EDF2FF" offset="100%"></stop>
        </linearGradient>
    </defs>
    <g id="3-19" stroke="none" stroke-width="1" fill="none" fill-rule="evenodd">
        <g id="bg" transform="translate(0.004043, 0.000000)">
            <g id="形状结合-+-编组-9-+-编组-9-+-形状结合备份-7-+-矩形备份-4-+-编组-9-+-矩形-蒙版" transform="translate(-0.004043, 0.000000)">
                <mask id="mask-2" fill="white">
                    <use xlink:href="#path-1"></use>
                </mask>
                <g id="蒙版"></g>
                <path d="M13.0967281,566.337367 L294.525227,847.765866 C385.126863,938.367502 385.126863,1085.26178 294.525227,1175.86341 L13.0967281,1457.29191 C8.85187373,1461.53677 4.48345157,1465.58274 0.00304041579,1469.42984 L0.00304041579,554.199442 C4.48345157,558.046537 8.85187373,562.092513 13.0967281,566.337367 Z" id="形状结合" fill="url(#linearGradient-3)" mask="url(#mask-2)"></path>
                <g id="编组-9" mask="url(#mask-2)">
                    <g transform="translate(118.000000, 1012.000000)">
                        <path d="M34.6174932,39.8928929 C28.8213902,36.6864494 26.0228046,23.3888184 26.2217366,0 C15.8452257,3.55774497 7.11984996,5.33661746 0.0456092596,5.33661746 C-0.856215519,12.7188565 11.7063363,35.420346 29.6814945,42.210173 C35.0007134,42.9651437 36.6460463,42.192717 34.6174932,39.8928929 Z" id="路径-16" fill="#D8E4FD"></path>
                        <path d="M52,39.1401042 C39.7590445,40.8600988 29.3587672,40.296889 20.799168,37.4504749 C27.6259482,43.5087672 36.5784431,47.3586089 47.6566527,49 L52,39.1401042 Z" id="路径-15" fill="#4E59A1"></path>
                    </g>
                </g>
                <g id="编组-9" mask="url(#mask-2)">
                    <g transform="translate(56.000000, 352.000000)">
                        <path d="M34.6174932,39.8928929 C28.8213902,36.6864494 26.0228046,23.3888184 26.2217366,0 C15.8452257,3.55774497 7.11984996,5.33661746 0.0456092596,5.33661746 C-0.856215519,12.7188565 11.7063363,35.420346 29.6814945,42.210173 C35.0007134,42.9651437 36.6460463,42.192717 34.6174932,39.8928929 Z" id="路径-16" fill="#D8E4FD"></path>
                        <path d="M52,39.1401042 C39.7590445,40.8600988 29.3587672,40.296889 20.799168,37.4504749 C27.6259482,43.5087672 36.5784431,47.3586089 47.6566527,49 L52,39.1401042 Z" id="路径-15" fill="#4E59A1"></path>
                    </g>
                </g>
                <path d="M999.454689,-460 L1372.04923,-87.4047732 C1462.65086,3.19686245 1462.65086,150.091138 1372.04923,240.692773 L999.454689,613.288 L999.454689,-460 Z" id="形状结合备份-7" fill="url(#linearGradient-4)" mask="url(#mask-2)" transform="translate(1219.727572, 76.644000) scale(-1, 1) translate(-1219.727572, -76.644000) "></path>
                <rect id="矩形备份-4" stroke="#E2EAFE" stroke-width="10" mask="url(#mask-2)" transform="translate(1370.000000, 622.301562) rotate(-315.000000) translate(-1370.000000, -622.301562) " x="1351" y="603.301562" width="38" height="38" rx="16"></rect>
                <g id="编组-9" mask="url(#mask-2)">
                    <g transform="translate(1284.000000, 907.443698)">
                        <path d="M34.6174932,39.8928929 C28.8213902,36.6864494 26.0228046,23.3888184 26.2217366,0 C15.8452257,3.55774497 7.11984996,5.33661746 0.0456092596,5.33661746 C-0.856215519,12.7188565 11.7063363,35.420346 29.6814945,42.210173 C35.0007134,42.9651437 36.6460463,42.192717 34.6174932,39.8928929 Z" id="路径-16" fill="#D8E4FD"></path>
                        <path d="M52,39.1401042 C39.7590445,40.8600988 29.3587672,40.296889 20.799168,37.4504749 C27.6259482,43.5087672 36.5784431,47.3586089 47.6566527,49 L52,39.1401042 Z" id="路径-15" fill="#4E59A1"></path>
                    </g>
                </g>
                <rect id="矩形" fill="#E8EFFF" mask="url(#mask-2)" transform="translate(82.000000, 539.000000) rotate(-315.000000) translate(-82.000000, -539.000000) " x="48" y="505" width="68" height="68" rx="16"></rect>
            </g>
        </g>
    </g>
</svg>