<?xml version="1.0" encoding="UTF-8"?>
<svg width="64px" height="64px" viewBox="0 0 64 64" version="1.1" xmlns="http://www.w3.org/2000/svg" xmlns:xlink="http://www.w3.org/1999/xlink">
    <title>ic_balance</title>
    <g id="3-19" stroke="none" stroke-width="1" fill="none" fill-rule="evenodd">
        <g id="Stake-nft-1" transform="translate(-897.000000, -440.000000)" fill="#76A2F5">
            <g id="编组-4备份" transform="translate(720.000000, 372.000000)">
                <g id="ic_balance" transform="translate(177.000000, 68.000000)">
                    <rect id="矩形" opacity="0.100000001" x="0" y="0" width="64" height="64" rx="8"></rect>
                    <g id="负载均衡" transform="translate(19.000000, 20.000000)" fill-rule="nonzero">
                        <path d="M21.9913755,15.8322897 C21.4616586,15.8322897 20.9579401,15.9433705 20.4932192,16.1328614 L15.568152,7.19411925 C16.4390976,6.44432344 17.0061871,5.33841546 17.0061871,4.08385516 C17.0061871,1.82793357 15.2122992,0 12.9991876,0 C10.7860759,0 8.99218799,1.82793357 8.99218799,4.08385516 C8.99218799,5.12278791 9.38378851,6.05880751 10.0109993,6.78083311 L4.97056434,15.9646066 C4.66020874,15.8861966 4.34010374,15.8322897 4.00699956,15.8322897 C1.79388788,15.8322897 0,17.6602233 0,19.9161448 C0,22.1720664 1.79388788,24 4.00699956,24 C5.98775077,24 7.6207737,22.5330792 7.94575339,20.6087667 L18.0542466,20.6087667 C18.3792263,22.5330792 20.0122492,24 21.9930004,24 C24.2061121,24 26,22.1720664 26,19.9161448 C26,17.6602233 24.2044872,15.8322897 21.9913755,15.8322897 L21.9913755,15.8322897 Z M11.3076683,7.77402668 C11.8227611,8.02069153 12.3931004,8.16771032 12.9991876,8.16771032 C13.4037873,8.16771032 13.7856384,8.08766676 14.1544903,7.97495236 L19.1494282,17.0394773 C18.63921,17.5638443 18.2752328,18.231963 18.1029936,18.9752246 L7.89538154,18.9752246 C7.67927005,18.0424721 7.14630336,17.2404029 6.42159865,16.6768309 L11.3076683,7.77402668 Z" id="形状"></path>
                    </g>
                </g>
            </g>
        </g>
    </g>
</svg>