<?xml version="1.0" encoding="UTF-8"?>
<svg width="357px" height="212px" viewBox="0 0 357 212" version="1.1" xmlns="http://www.w3.org/2000/svg" xmlns:xlink="http://www.w3.org/1999/xlink">
    <title>img_comingsoon</title>
    <g id="3-19" stroke="none" stroke-width="1" fill="none" fill-rule="evenodd">
        <g id="coming-soon" transform="translate(-542.000000, -364.000000)" fill-rule="nonzero">
            <g id="img_comingsoon" transform="translate(542.000000, 364.000000)">
                <path d="M146.874805,107.763992 C147.300196,107.067897 148.034962,105.637036 148.499025,104.747582 C148.769729,104.206175 149.040432,103.664768 149.311136,103.084689 C149.852543,101.963204 150.355278,100.803046 150.858012,99.6428884 C155.189268,89.5108454 157.548255,78.6440358 157.741614,67.6612106 L157.741614,64.6448008 C157.741614,63.7940186 157.702942,62.9432363 157.66427,62.0924541 C157.432239,57.2197922 156.736144,52.3471302 155.653331,47.5904841 C152.559577,34.0166402 146.17871,21.4095942 137.052137,10.890832 C133.958383,7.33301536 130.477911,3.96855832 126.223999,1.95761848 C122.704855,0.29472592 118.528287,-0.28535288 114.854455,0.79746088 C114.54508,0.87480472 114.235704,0.99082048 113.926329,1.10683624 C113.462266,1.26152392 112.998203,1.49355544 112.572812,1.72558696 C111.992733,2.03496232 106.578664,6.4435612 104.838428,14.3713048 C102.750144,23.6912375 106.462648,34.4807032 110.059137,44.264699 C116.285316,61.2029999 121.312666,72.8045759 124.406419,79.8428654 C129.781816,92.101864 138.831045,112.211262 143.046285,111.128449 C143.858395,110.896417 145.753319,109.5429 146.874805,107.763992" id="路径" fill="#E5EBFC"></path>
                <path d="M136.626746,79.8428654 C136.70409,80.0748969 136.742762,80.3456003 136.820106,80.5776318 C137.245497,80.8483353 137.670888,81.1577106 138.057607,81.4284141 C137.980263,81.1577106 137.941591,80.8870072 137.864247,80.6549757 C136.781434,76.4010645 135.659948,72.1858252 134.49979,67.9705859 C132.48885,60.7389369 130.361895,53.5459598 128.273611,46.3529826 C126.069312,38.7732863 123.82634,31.19359 121.622041,23.6525656 C119.37907,16.0728693 117.17477,8.49317296 114.970471,0.95214856 C114.970471,0.91347664 114.931799,0.8361328 114.893127,0.79746088 C114.622423,0.37206976 113.848985,0.565655424 113.965001,1.10683624 C114.235704,2.03496232 114.506408,3.00176032 114.777111,3.9298864 C117.020082,11.5095827 119.224382,19.089279 121.428681,26.6303034 C123.632981,34.1713278 125.875952,41.7123522 128.080252,49.2533766 C130.168535,56.4076818 132.295491,63.600659 134.229087,70.7936361 C135.041197,73.8100458 135.853308,76.8264556 136.626746,79.8428654" id="路径" fill="#FFFFFF"></path>
                <path d="M142.35019,107.53196 C142.311518,107.918679 142.272846,108.266727 142.234174,108.653446 C142.582222,108.53743 142.930269,108.421414 143.316988,108.305398 C143.587692,108.228055 143.897067,108.112039 144.16777,108.034695 C165.011935,100.88039 178.585779,80.7709914 177.464293,58.766669 C177.309606,56.0209626 176.922887,53.1979125 175.685385,50.7615815 C174.641243,48.7119698 172.939679,46.9717334 170.851395,46.1209511 C170.696707,46.0436073 170.503348,46.0049354 170.309988,45.9275915 C170.039285,45.8502477 169.768581,45.7729038 169.459206,45.7342319 C167.680298,45.4635285 165.862717,45.7729038 164.277169,46.6236861 C163.194355,47.165093 162.188885,47.8998594 161.338103,48.7893136 C159.211147,50.9162692 157.896302,53.7006474 156.6588,56.4463538 C152.443561,65.8049584 149.040432,75.4729384 146.410742,85.3729499 C146.333398,85.6823253 146.256054,86.0303726 146.17871,86.3784198 C148.073634,93.3393654 146.720117,100.764374 142.504878,106.603834 L142.504878,106.642506 C142.388862,106.874537 142.388862,107.183913 142.35019,107.53196" id="路径" fill="#E5EBFC"></path>
                <path d="M170.812723,46.159623 L165.70803,59.0373724 L160.603336,71.9151218 C158.979116,75.9756734 157.354895,80.0748969 155.692002,84.1354485 C154.02911,88.1573282 152.288874,92.1405359 150.432621,96.0850718 C148.576369,100.029608 146.604101,103.8968 144.438474,107.647976 L143.626363,109.040165 C143.433004,109.34954 142.930269,109.078837 143.123628,108.769462 C145.327928,105.018285 147.37754,101.189765 149.233792,97.2839013 C151.128716,93.3780374 152.868952,89.3948296 154.570517,85.3729499 C156.272081,81.3510702 157.896302,77.2905186 159.481851,73.229967 C161.183415,68.9373839 162.88498,64.6834727 164.586544,60.3908896 L169.691238,47.5131402 L170.309988,45.9275915 C170.426004,45.5408723 170.928739,45.8115758 170.812723,46.159623" id="路径" fill="#FFFFFF"></path>
                <path d="M237.483113,206.377388 L195.33072,206.377388 L195.33072,191.836746 L213.081132,191.836746 C210.683473,189.323071 209.175268,185.958614 209.175268,182.207438 L209.175268,148.872243 C209.175268,141.17653 215.401447,134.989023 223.058487,134.989023 L263.238612,134.989023 L263.19994,73.6166862 C263.19994,71.2190272 261.227672,69.2467593 258.830013,69.2467593 L85.5798115,69.3241031 C83.1821525,69.3241031 81.2098846,71.296371 81.2098846,73.6940301 L81.2485565,187.582834 C81.2485565,189.980494 83.2208244,191.952761 85.6184834,191.952761 L149.156448,191.875418 L149.156448,206.41606 L107.197415,206.41606 C105.921241,206.41606 104.8771,207.460201 104.8771,208.736375 C104.8771,210.012548 105.921241,211.05669 107.197415,211.05669 L237.444441,211.018018 C238.720615,211.018018 239.764757,209.973876 239.764757,208.697703 C239.803428,207.421529 238.759287,206.377388 237.483113,206.377388 Z" id="路径" fill="#50599C"></path>
                <path d="M209.175268,148.872243 C209.175268,141.17653 215.401447,134.989023 223.058487,134.989023 L256.084307,134.989023 L256.084307,76.130361 L88.3255178,76.130361 L88.3255178,173.467584 L209.175268,173.467584 L209.175268,148.872243 L209.175268,148.872243 Z" id="路径" fill="#FFFFFF"></path>
                <path d="M282.690588,196.090657 L228.820603,196.090657 C221.743642,196.090657 216.020198,190.367213 216.020198,183.290251 L216.020198,152.584747 C216.020198,145.507786 221.743642,139.784341 228.820603,139.784341 L282.690588,139.784341 C289.767549,139.784341 295.490993,145.507786 295.490993,152.584747 L295.490993,183.290251 C295.490993,190.367213 289.728877,196.090657 282.690588,196.090657 Z" id="路径" fill="#FFFFFF"></path>
                <path d="M282.690588,196.670736 L228.820603,196.670736 C221.472938,196.670736 215.478791,190.676588 215.478791,183.328923 L215.478791,152.623419 C215.478791,145.275754 221.472938,139.281606 228.820603,139.281606 L282.690588,139.281606 C290.038253,139.281606 296.0324,145.275754 296.0324,152.623419 L296.0324,183.328923 C296.0324,190.676588 290.038253,196.670736 282.690588,196.670736 Z M228.820603,140.36442 C222.053017,140.36442 216.561605,145.855833 216.561605,152.623419 L216.561605,183.328923 C216.561605,190.096509 222.053017,195.587922 228.820603,195.587922 L282.690588,195.587922 C289.458174,195.587922 294.949586,190.096509 294.949586,183.328923 L294.949586,152.623419 C294.949586,145.855833 289.458174,140.36442 282.690588,140.36442 L228.820603,140.36442 Z" id="形状" fill="#BBD7FD"></path>
                <path d="M133.49432,130.812456 L43.1953872,130.812456 C35.7703786,130.812456 29.737559,124.779636 29.737559,117.354628 L29.737559,60.0041704 C29.737559,52.5791618 35.7703786,46.5463422 43.1953872,46.5463422 L133.49432,46.5463422 C140.919329,46.5463422 146.952149,52.5791618 146.952149,60.0041704 L146.952149,117.3933 C146.952149,124.818308 140.919329,130.812456 133.49432,130.812456 Z" id="路径" fill="#FFFFFF"></path>
                <path d="M133.49432,131.392535 L43.1953872,131.392535 C35.4610032,131.392535 29.1961522,125.127684 29.1961522,117.3933 L29.1961522,60.0041704 C29.1961522,52.2697864 35.4610032,46.0049354 43.1953872,46.0049354 L133.49432,46.0049354 C141.228704,46.0049354 147.493555,52.2697864 147.493555,60.0041704 L147.493555,117.3933 C147.493555,125.089012 141.190032,131.392535 133.49432,131.392535 Z M43.1953872,47.0877491 C36.0797539,47.0877491 30.2789659,52.8885371 30.2789659,60.0041704 L30.2789659,117.3933 C30.2789659,124.508933 36.0797539,130.309721 43.1953872,130.309721 L133.49432,130.309721 C140.609954,130.309721 146.410742,124.508933 146.410742,117.3933 L146.410742,60.0041704 C146.410742,52.8885371 140.609954,47.0877491 133.49432,47.0877491 L43.1953872,47.0877491 Z" id="形状" fill="#BBD7FD"></path>
                <path d="M229.55537,182.516813 C228.627244,182.516813 227.892477,181.782046 227.892477,180.85392 L227.892477,155.562485 C227.892477,154.634359 228.627244,153.899592 229.55537,153.899592 C230.483496,153.899592 231.218262,154.634359 231.218262,155.562485 L231.218262,180.85392 C231.218262,181.782046 230.483496,182.516813 229.55537,182.516813 Z M242.587807,182.516813 C241.659681,182.516813 240.924914,181.782046 240.924914,180.85392 L240.924914,170.103127 C240.924914,169.175001 241.659681,168.440234 242.587807,168.440234 C243.515933,168.440234 244.250699,169.175001 244.250699,170.103127 L244.250699,180.85392 C244.250699,181.782046 243.515933,182.516813 242.587807,182.516813 Z M255.658916,182.516813 C254.73079,182.516813 253.996023,181.782046 253.996023,180.85392 L253.996023,161.324601 C253.996023,160.396475 254.73079,159.661708 255.658916,159.661708 C256.587042,159.661708 257.321808,160.396475 257.321808,161.324601 L257.321808,180.85392 C257.283136,181.782046 256.54837,182.516813 255.658916,182.516813 Z M268.691353,182.516813 C267.763227,182.516813 267.02846,181.782046 267.02846,180.85392 L267.02846,149.955056 C267.02846,149.02693 267.763227,148.292164 268.691353,148.292164 C269.619479,148.292164 270.354245,149.02693 270.354245,149.955056 L270.354245,180.85392 C270.354245,181.782046 269.580807,182.516813 268.691353,182.516813 Z M281.72379,182.516813 C280.795664,182.516813 280.060897,181.782046 280.060897,180.85392 L280.060897,158.462879 C280.060897,157.534753 280.795664,156.799986 281.72379,156.799986 C282.651916,156.799986 283.386682,157.534753 283.386682,158.462879 L283.386682,180.85392 C283.386682,181.782046 282.651916,182.516813 281.72379,182.516813 Z" id="形状" fill="#50599C"></path>
                <path d="M123.942356,105.018285 C122.124776,105.018285 120.616571,103.548752 120.616571,101.6925 C120.616571,84.1354485 106.346633,69.86551 88.7895809,69.86551 C71.2325292,69.86551 56.9625907,84.1354485 56.9625907,101.6925 C56.9625907,103.51008 55.4930578,105.018285 53.6368056,105.018285 C51.8192254,105.018285 50.3110205,103.548752 50.3110205,101.6925 C50.3110205,80.500288 67.5586968,63.2139398 88.7895809,63.2139398 C110.020465,63.2139398 127.268141,80.4616161 127.268141,101.6925 C127.229469,103.548752 125.759936,105.018285 123.942356,105.018285 L123.942356,105.018285 Z" id="路径" fill="#FFC266"></path>
                <path d="M79.546992,93.3393654 C79.8563674,93.7260846 79.9723831,94.2288196 79.9723831,94.8088984 C79.9723831,95.6210087 79.6630078,96.2784314 79.082929,96.7424944 C78.5028502,97.2065574 77.6907398,97.438589 76.646598,97.438589 C76.0278473,97.438589 75.4090966,97.3225732 74.8290178,97.1292136 C74.248939,96.935854 73.7848759,96.6651506 73.3981567,96.3171033 L73.9782355,95.0796018 C74.7903458,95.7370245 75.6798,96.0463998 76.5692542,96.0463998 C77.149333,96.0463998 77.613396,95.9303841 77.8840994,95.6983526 C78.1934748,95.466321 78.3094906,95.1182738 78.3094906,94.6155388 C78.3094906,94.1514758 78.1548029,93.8034285 77.8840994,93.571397 C77.5747241,93.3393654 77.149333,93.2233497 76.5305822,93.2233497 L75.2930808,93.2233497 L75.2930808,91.8698325 L76.2985507,91.8698325 C77.4973802,91.8698325 78.116131,91.4057694 78.116131,90.5163153 C78.116131,90.0909242 78.0001152,89.7815488 77.7294118,89.5495173 C77.4587083,89.3174858 77.110661,89.20147 76.6079261,89.20147 C76.182535,89.20147 75.7571438,89.2788138 75.3317527,89.4335015 C74.9063616,89.5881892 74.4809705,89.8202207 74.0942513,90.168268 L73.5141725,88.9307666 C73.9008917,88.5827193 74.3649547,88.3120158 74.9450335,88.1186562 C75.5251123,87.9252966 76.1051911,87.8092809 76.7239418,87.8092809 C77.6520679,87.8092809 78.3868344,88.0413124 78.9282413,88.4667035 C79.4696482,88.8920946 79.7403516,89.5108454 79.7403516,90.2842838 C79.7403516,90.7870187 79.5856639,91.2510818 79.3536324,91.637801 C79.082929,92.0245202 78.7348817,92.2952236 78.2708186,92.4499113 C78.8508974,92.6819428 79.2762886,92.9526462 79.546992,93.3393654 Z M88.4028617,94.1901477 L88.4028617,95.504993 L87.0880164,95.504993 L87.0880164,97.3225732 L85.4251238,97.3225732 L85.4251238,95.504993 L81.3645722,95.504993 L81.3645722,94.2288196 L85.6958273,87.9639686 L87.0880164,87.9639686 L87.0880164,94.1514758 L88.4028617,94.1901477 Z M82.9887929,94.1901477 L85.4637958,94.1901477 L85.4637958,90.632331 L82.9887929,94.1901477 Z M96.0212299,95.969056 L96.0212299,97.3612451 L89.7563789,97.3612451 L89.7563789,96.0850718 L92.9274763,92.6819428 C93.3141955,92.2952236 93.584899,91.9085044 93.7395866,91.5604571 C93.8942743,91.2124098 94.0102901,90.8643626 94.0102901,90.5549872 C94.0102901,90.1295961 93.8942743,89.8202207 93.6622428,89.5881892 C93.4302113,89.3561577 93.082164,89.2788138 92.579429,89.2788138 C91.7286468,89.2788138 90.8778646,89.5881892 90.0657542,90.2456118 L89.4856754,89.0081104 C89.8723946,88.698735 90.3364577,88.4280316 90.9165365,88.234672 C91.4966153,88.0413124 92.0766941,87.9252966 92.6567729,87.9252966 C93.584899,87.9252966 94.3196654,88.1573282 94.8997442,88.6213912 C95.4411511,89.0854542 95.7118546,89.704205 95.7118546,90.4776434 C95.7118546,91.0190502 95.5958388,91.5217852 95.3638073,91.9858482 C95.1317758,92.4499113 94.7450566,92.9913182 94.2036497,93.571397 L91.9220064,96.0077279 L96.0212299,95.969056 L96.0212299,95.969056 Z M101.976706,95.969056 L103.987645,95.969056 L103.987645,97.3612451 L98.2255294,97.3612451 L98.2255294,95.969056 L100.236469,95.969056 L100.236469,89.9362365 L98.6509205,90.9030345 L97.9934978,89.665533 L100.777876,88.0026405 L102.015378,88.0026405 L102.015378,95.969056 L101.976706,95.969056 L101.976706,95.969056 Z" id="形状" fill="#BBD7FD"></path>
                <path d="M285.706998,105.366333 L212.655741,105.366333 C206.932296,105.366333 202.291666,100.725702 202.291666,95.002258 L202.291666,48.4799382 C202.291666,42.7564941 206.932296,38.1158637 212.655741,38.1158637 L285.706998,38.1158637 C291.430442,38.1158637 296.071312,42.7564941 296.071312,48.4799382 L296.071312,95.002258 C296.109744,100.725702 291.469114,105.366333 285.706998,105.366333 Z" id="路径" fill="#FFFFFF"></path>
                <path d="M285.706998,105.907739 L212.655741,105.907739 C206.622921,105.907739 201.711587,100.996406 201.711587,94.9635861 L201.711587,48.4799382 C201.711587,42.4471187 206.622921,37.5357849 212.655741,37.5357849 L285.706998,37.5357849 C291.739817,37.5357849 296.651151,42.4471187 296.651151,48.4799382 L296.651151,95.002258 C296.651151,100.996406 291.739817,105.907739 285.706998,105.907739 Z M212.655741,38.6185986 C207.241672,38.6185986 202.833073,43.0271975 202.833073,48.4412663 L202.833073,94.9635861 C202.833073,100.377655 207.241672,104.786254 212.655741,104.786254 L285.706998,104.786254 C291.121066,104.786254 295.529665,100.377655 295.529665,94.9635861 L295.529665,48.4799382 C295.529665,43.0658694 291.121066,38.6572706 285.706998,38.6572706 L212.655741,38.6185986 L212.655741,38.6185986 Z" id="形状" fill="#BBD7FD"></path>
                <path d="M243.090542,84.7541992 C239.068662,84.7541992 236.245612,78.6053639 233.267874,72.1084814 C230.947559,67.0424598 228.085837,60.7776088 225.53349,61.0096403 C223.793254,61.164328 220.351453,64.3740974 216.87098,83.7874012 C216.754964,84.36748 216.174885,84.7928711 215.594807,84.6768554 C214.976056,84.5608396 214.589337,83.9807608 214.705352,83.400682 C218.572544,61.8990945 222.633096,59.0760443 225.34013,58.8053409 C229.478026,58.4186217 232.301076,64.6061289 235.317486,71.1803553 C237.831161,76.633096 240.654211,82.8206032 243.361245,82.5112278 C246.261639,82.2018525 248.427267,74.5834842 250.167503,68.4733209 C252.333131,60.8162807 254.228055,54.2420543 258.133919,53.7393194 C262.078454,53.2752563 264.166738,60.5455773 266.603069,68.9760558 C268.149946,74.3514527 270.470261,82.433884 272.442529,82.4725559 C273.409327,82.4725559 276.851128,80.4229442 281.607774,54.5901016 C281.72379,53.9713509 282.303869,53.5846317 282.883947,53.7006474 C283.464026,53.8166632 283.889417,54.396742 283.773402,54.9768208 C278.862068,81.2737264 275.110891,84.7541992 272.403857,84.7541992 L272.326513,84.7541992 C268.691353,84.6768554 266.719085,77.7159098 264.39877,69.6334785 C262.813221,64.1807378 260.454234,55.9436188 258.443294,55.9436188 L258.36595,55.9436188 C255.890947,56.2529942 253.880007,63.3686274 252.255787,69.0920716 C250.051487,76.9037994 247.924532,84.2514642 243.554605,84.7541992 L243.090542,84.7541992 L243.090542,84.7541992 Z" id="路径" fill="#BBD7FD"></path>
                <path d="M293.40271,124.972996 C293.093334,124.972996 292.861303,124.740964 292.861303,124.431589 C292.861303,124.122214 293.093334,123.890182 293.40271,123.85151 C308.91015,123.271432 323.528135,119.674943 336.831276,113.139388 C342.206673,110.471026 347.38871,107.3386 352.2227,103.742112 C352.454731,103.548752 352.802779,103.626096 352.996138,103.858128 C353.189498,104.090159 353.112154,104.438206 352.880123,104.631566 C348.007461,108.228055 342.74808,111.437824 337.295339,114.106186 C323.876183,120.757757 309.103509,124.392917 293.40271,124.972996 C293.441382,124.972996 293.441382,124.972996 293.40271,124.972996 Z M354.272312,103.123361 C354.078952,103.123361 353.924264,103.046017 353.808249,102.852658 C353.653561,102.581954 353.730905,102.272579 353.962936,102.079219 C354.543015,101.731172 355.04575,101.267109 355.471141,100.803046 C355.664501,100.609686 355.780517,100.416327 355.896532,100.222967 C356.05122,99.9522638 356.399267,99.9135918 356.669971,100.06828 C356.940674,100.222967 356.979346,100.571014 356.824658,100.841718 C356.669971,101.035078 356.515283,101.305781 356.283252,101.537812 C355.819188,102.079219 355.23911,102.581954 354.543015,103.007345 C354.465671,103.084689 354.388327,103.123361 354.272312,103.123361 L354.272312,103.123361 Z" id="形状" fill="#26D49B"></path>
                <path d="M308.987493,82.6272436 C308.832806,82.6272436 308.639446,82.5498998 308.52343,82.3952121 C308.330071,82.1631806 308.407415,81.8151333 308.639446,81.6217737 L325.075012,69.6721504 C325.307044,69.4787908 325.655091,69.5561346 325.84845,69.7881662 C326.04181,70.0201977 325.964466,70.368245 325.732435,70.5616046 L309.296869,82.5112278 C309.219525,82.5885717 309.103509,82.6272436 308.987493,82.6272436 L308.987493,82.6272436 Z" id="路径" fill="#397EF6"></path>
                <path d="M326.85392,184.527753 C326.815248,184.527753 326.737905,184.527753 326.699233,184.489081 L307.363273,178.262902 C307.092569,178.185558 306.89921,177.876183 307.015225,177.566807 C307.092569,177.296104 307.401945,177.102744 307.71132,177.21876 L327.04728,183.444939 C327.317983,183.522283 327.511343,183.831658 327.395327,184.141034 C327.317983,184.373065 327.085952,184.527753 326.85392,184.527753 Z M174.254524,38.6185986 C174.17718,38.6185986 174.099836,38.6185986 174.061164,38.5799267 C173.790461,38.463911 173.635773,38.1545356 173.751789,37.8451602 C174.17718,36.8010184 174.795931,35.3314854 175.569369,33.5525771 C176.652183,31.0775742 177.232262,29.724057 177.889685,28.6412433 C178.895154,26.9783507 180.132656,25.5088178 181.602189,24.3486602 C181.83422,24.1553006 182.182268,24.1939725 182.375627,24.426004 C182.568987,24.6580355 182.530315,25.0060828 182.298283,25.1994424 C180.944766,26.2822562 179.784609,27.6357734 178.856483,29.1826502 C178.276404,30.1494482 177.734997,31.3482777 176.613511,33.9779682 C175.840073,35.7568766 175.221322,37.2264095 174.834603,38.2318794 C174.679915,38.5025829 174.447884,38.6185986 174.254524,38.6185986 L174.254524,38.6185986 Z M183.613129,23.6912375 C183.458441,23.6912375 183.303753,23.6138937 183.187738,23.4978779 C182.994378,23.2658464 183.03305,22.9177991 183.265081,22.7244395 C183.342425,22.6470957 183.458441,22.5697518 183.613129,22.4150642 C183.84516,22.2217046 183.999848,22.1056888 184.115864,22.028345 C184.347895,21.9123292 184.618599,21.7963134 184.927974,21.7189696 C185.237349,21.6416258 185.508053,21.7963134 185.624069,22.1056888 C185.701412,22.4150642 185.546725,22.6857676 185.237349,22.8017834 C185.005318,22.8791272 184.811958,22.956471 184.657271,23.0338149 C184.541255,23.0724868 184.463911,23.1498306 184.270551,23.3045183 C184.115864,23.4205341 183.999848,23.4978779 183.922504,23.5752218 C183.883832,23.6525656 183.767816,23.6912375 183.613129,23.6912375 Z" id="形状" fill="#FFC266"></path>
                <path d="M184.425239,169.948439 L149.891214,169.948439 C144.051755,169.948439 139.33378,165.230465 139.33378,159.391005 L139.33378,114.37689 C139.33378,108.53743 144.051755,103.819456 149.891214,103.819456 L184.425239,103.819456 C190.264699,103.819456 194.982673,108.53743 194.982673,114.37689 L194.982673,159.391005 C194.982673,165.230465 190.226027,169.948439 184.425239,169.948439 Z" id="路径" fill="#FFFFFF"></path>
                <path d="M184.425239,170.528518 L149.891214,170.528518 C143.781051,170.528518 138.792373,165.53984 138.792373,159.429677 L138.792373,114.37689 C138.792373,108.266727 143.781051,103.278049 149.891214,103.278049 L184.425239,103.278049 C190.535402,103.278049 195.52408,108.266727 195.52408,114.37689 L195.52408,159.391005 C195.52408,165.53984 190.535402,170.528518 184.425239,170.528518 L184.425239,170.528518 Z M149.852543,104.399535 C144.36113,104.399535 139.875187,108.885477 139.875187,114.37689 L139.875187,159.391005 C139.875187,164.921089 144.36113,169.36836 149.852543,169.36836 L184.386567,169.36836 C189.87798,169.36836 194.363922,164.882417 194.363922,159.391005 L194.363922,114.37689 C194.363922,108.885477 189.87798,104.399535 184.386567,104.399535 L149.852543,104.399535 L149.852543,104.399535 Z" id="形状" fill="#BBD7FD"></path>
                <path d="M167.486938,122.575337 L177.077574,122.575337 C177.077574,127.834718 172.746319,132.165973 167.486938,132.165973 C162.227557,132.165973 157.896302,127.834718 157.896302,122.575337 C157.896302,117.315956 162.227557,112.984701 167.486938,112.984701 C169.381862,112.984701 171.238114,113.526108 172.784991,114.608921 L167.486938,122.575337 L167.486938,122.575337 Z" id="路径" fill="#BBD7FD"></path>
                <path d="M112.766171,209.548485 C116.517348,206.377388 118.798991,201.38871 118.18024,196.516048 C117.600161,191.643386 113.887657,187.157443 109.092339,186.151973 C104.297021,185.107832 98.8442801,187.969554 97.3747471,192.648856 C96.5626368,183.638299 95.6345107,174.20235 90.8391926,166.54531 C86.5079376,159.584364 78.9669132,154.595687 70.8071381,153.706233 C62.647363,152.816778 54.0621967,156.181235 48.9575033,162.600774 C43.8528098,169.020313 42.6153084,178.417589 46.173125,185.803926 C48.8028156,191.256667 53.6368056,195.317218 58.7028271,198.604332 C74.8676897,209.123094 94.8997442,213.493021 114.003673,210.708643" id="路径" fill="#E5EBFC"></path>
                <path d="M57.0786065,156.374595 C63.8075206,161.866008 69.9950278,167.976171 75.5251123,174.666413 C81.0551969,181.356655 85.9278588,188.549632 90.0657542,196.168001 C92.3860694,200.460584 94.4743531,204.830511 96.2919334,209.355125 C96.6786526,210.283252 95.1704477,210.669971 94.8224004,209.780517 C91.5739591,201.852773 87.5520794,194.234405 82.8341052,187.0801 C78.116131,179.964466 72.7407341,173.274224 66.7465865,167.202733 C63.3434575,163.760932 59.7856409,160.51249 56.0344646,157.457409 C55.2223543,156.838658 56.3051681,155.755844 57.0786065,156.374595 L57.0786065,156.374595 Z" id="路径" fill="#FFFFFF"></path>
                <path d="M170.232644,120.951116 L174.950619,112.636654 C177.928356,114.338218 179.784609,117.509315 179.784609,120.951116 L179.784609,121.531195 L170.232644,120.951116 L170.232644,120.951116 Z" id="路径" fill="#BBD7FD"></path>
                <path d="M154.686533,138.044105 L180.287344,138.044105 L180.287344,142.452704 L154.686533,142.452704 L154.686533,138.044105 Z M154.686533,146.551927 L180.287344,146.551927 L180.287344,151.501933 L154.686533,151.501933 L154.686533,146.551927 Z M154.686533,155.794516 L180.287344,155.794516 L180.287344,160.009756 L154.686533,160.009756 L154.686533,155.794516 Z" id="形状" fill="#BBD7FD"></path>
                <path d="M64.6969747,170.528518 L64.580959,170.528518 C57.2332942,168.942969 50.1950047,166.35195 43.6981222,162.832806 C39.7535863,160.70585 36.8918642,158.69491 34.3781894,156.954674 C30.8590447,154.479671 28.0746665,152.546075 23.5887238,151.03787 C16.9758254,148.833571 9.47347296,148.717555 1.27502592,150.689823 C0.96565056,150.767167 0.69494712,150.573807 0.61760328,150.264432 C0.54025944,149.955056 0.73361904,149.684353 1.0429944,149.607009 C9.43480104,147.596069 17.169185,147.712085 23.975443,149.993728 C28.5774014,151.540605 31.5938112,153.628889 35.0356121,156.026548 C37.510615,157.766784 40.3336651,159.739052 44.239529,161.827336 C50.6590678,165.307809 57.5813414,167.860155 64.8516624,169.445704 C65.1610378,169.523048 65.3543974,169.793751 65.2770535,170.103127 C65.1610378,170.335158 64.9290062,170.528518 64.6969747,170.528518 L64.6969747,170.528518 Z" id="路径" fill="#397EF6"></path>
            </g>
        </g>
    </g>
</svg>