<?xml version="1.0" encoding="UTF-8"?>
<svg width="16px" height="16px" viewBox="0 0 16 16" version="1.1" xmlns="http://www.w3.org/2000/svg" xmlns:xlink="http://www.w3.org/1999/xlink">
    <title>ic_copy</title>
    <g id="3-19" stroke="none" stroke-width="1" fill="none" fill-rule="evenodd">
        <g id="account弹窗" transform="translate(-645.000000, -512.000000)" fill="#000000" fill-rule="nonzero">
            <g id="编组-3" transform="translate(480.000000, 301.000000)">
                <g id="ic_copy" transform="translate(165.000000, 211.000000)">
                    <path d="M13.479621,12.3372795 L13.4796209,12.3372795 C13.0104555,12.3372795 12.6301219,11.9589566 12.6301219,11.4922824 C12.6301219,11.0256081 13.0104555,10.6472941 13.4796209,10.6472941 L13.4796209,10.6472941 C13.9332722,10.6472941 14.3010281,10.2814909 14.3010281,9.83024848 L14.3010281,2.5070252 L14.3010281,2.5070252 C14.3010281,2.05578278 13.9332722,1.68997963 13.4796209,1.68997963 L6.11730429,1.68997963 L6.11730425,1.68997963 C5.66365297,1.68997965 5.29589707,2.05578278 5.29589707,2.5070252 C5.29589707,2.5070252 5.29589707,2.5070252 5.29589707,2.5070252 L5.29589707,2.5070252 C5.29589707,2.97369944 4.91556345,3.35201351 4.44639798,3.35201351 C3.97723251,3.35201351 3.59689884,2.97369944 3.59689884,2.5070252 L3.59689884,2.50705275 C3.59997336,1.12373674 4.72657732,0.00309989717 6.11726907,0 L13.4795857,0 L13.4795858,0 C14.8702863,0.00307341732 15.9969054,1.12370618 16,2.50703092 L16,9.8302542 L16,9.8302267 C15.9969255,11.2135427 14.8703215,12.3341796 13.4796298,12.3372795 L13.479621,12.3372795 Z M9.71306768,15.9999978 L2.66200054,15.9999978 L2.66200068,15.9999978 C1.1936875,16.0018488 0.00187323804,14.8193693 3.8740331e-06,13.3588614 C3.8740331e-06,13.3566246 3.8740331e-06,13.3543878 3.8740331e-06,13.3521509 L3.8740331e-06,6.31058168 L3.8740331e-06,6.31058186 C-0.00247587109,4.85006749 1.18581299,3.6640774 2.65412178,3.66160675 C2.65674568,3.66160675 2.65936957,3.66160675 2.66199346,3.66160675 L9.7130606,3.66160675 L9.71306054,3.66160675 C11.1813737,3.65975584 12.373188,4.84223532 12.3750535,6.30274314 C12.3750563,6.30497998 12.3750563,6.30721682 12.3750535,6.30945366 L12.3750535,13.3510229 C12.4031454,14.8163399 11.1862042,15.9999978 9.71306054,15.9999978 L9.71306768,15.9999978 Z M2.66200054,5.35155373 L2.66200058,5.35155373 C2.13451808,5.34724788 1.70337324,5.76906883 1.69897687,6.29375044 C1.69897687,6.29898798 1.69897687,6.3042258 1.69897687,6.30946334 L1.69897687,13.3510326 L1.69897687,13.351037 C1.69465047,13.8757186 2.11872513,14.3045741 2.64620763,14.3089427 C2.65147313,14.3089427 2.65673891,14.3089427 2.66200441,14.3089427 L9.71307154,14.3089427 L9.71307153,14.3089427 C10.240554,14.3132485 10.6716989,13.8914276 10.6760953,13.366746 C10.6760953,13.3615084 10.6760953,13.3562706 10.6760953,13.3510331 L10.6760953,6.30946384 L10.6760953,6.30945932 C10.6804216,5.78477771 10.256347,5.3559244 9.72886449,5.35155373 C9.72359899,5.35155373 9.71833321,5.35155373 9.71306771,5.35155373 L2.66200054,5.35155373 Z" id="形状"></path>
                </g>
            </g>
        </g>
    </g>
</svg>