<?xml version="1.0" encoding="UTF-8"?>
<svg width="20px" height="20px" viewBox="0 0 20 20" version="1.1" xmlns="http://www.w3.org/2000/svg" xmlns:xlink="http://www.w3.org/1999/xlink">
    <title>ic_?</title>
    <g id="3-19" stroke="none" stroke-width="1" fill="none" fill-rule="evenodd">
        <g id="Stake-nft-1" transform="translate(-589.000000, -462.000000)" fill="#B0B3BF" fill-rule="nonzero">
            <g id="编组-4" transform="translate(170.000000, 372.000000)">
                <path d="M428.988827,90 C430.374302,90 431.674123,90.2644313 432.888268,90.7932961 C434.10242,91.3221609 435.163866,92.0372447 436.072626,92.9385475 C436.981379,93.8398503 437.696463,94.8975799 438.217877,96.1117318 C438.739292,97.3258838 439,98.6256983 439,100.011173 C439,101.396648 438.739292,102.692737 438.217877,103.899441 C437.696463,105.106145 436.981379,106.163866 436.072626,107.072626 C435.163873,107.981379 434.10242,108.696463 432.888268,109.217877 C431.674116,109.739292 430.374302,110 428.988827,110 C427.603352,110 426.307263,109.739292 425.100559,109.217877 C423.893855,108.696463 422.836134,107.981379 421.927374,107.072626 C421.018621,106.163873 420.303537,105.106145 419.782123,103.899441 C419.260708,102.692737 419,101.396648 419,100.011173 C419,98.6256983 419.260708,97.3258773 419.782123,96.1117318 C420.303537,94.8975799 421.018621,93.8398438 421.927374,92.9385475 C422.836127,92.0372447 423.893855,91.3221609 425.100559,90.7932961 C426.307263,90.2644313 427.603352,90 428.988827,90 Z M429.011173,106.849162 C429.39851,106.849162 429.722532,106.718808 429.98324,106.458101 C430.243949,106.197392 430.374302,105.88082 430.374302,105.50838 C430.374302,105.121044 430.243948,104.797021 429.98324,104.536313 C429.722532,104.275604 429.39851,104.145251 429.011173,104.145251 C428.623837,104.145251 428.299815,104.275605 428.039106,104.536313 C427.778398,104.797021 427.648045,105.121044 427.648045,105.50838 C427.648045,105.88082 427.778398,106.197392 428.039106,106.458101 C428.299815,106.718809 428.623837,106.849162 429.011173,106.849162 Z M430.150838,101.351955 C430.13594,101.113593 430.284916,100.860335 430.597765,100.592179 C430.910615,100.324022 431.260708,100.026071 431.648045,99.698324 C432.035381,99.3705766 432.392923,99.0018615 432.72067,98.5921788 C433.048418,98.1824961 433.227189,97.7094972 433.256983,97.1731844 C433.286778,96.5921788 433.227188,96.0484179 433.078212,95.5418994 C432.929236,95.035381 432.683426,94.5996268 432.340782,94.2346369 C431.998139,93.8696469 431.554934,93.5791441 431.011173,93.3631285 C430.467412,93.1471135 429.830541,93.0391061 429.100559,93.0391061 C428.191806,93.0391061 427.435754,93.1992552 426.832402,93.5195531 C426.22905,93.8398503 425.741155,94.2271888 425.368715,94.6815642 C424.996275,95.1359397 424.735569,95.6052134 424.586592,96.0893855 C424.437616,96.5735575 424.370577,96.9795151 424.385475,97.3072626 C424.400372,97.6945989 424.523278,97.9776536 424.75419,98.1564246 C424.985102,98.3351955 425.234637,98.4283061 425.502793,98.4357542 C425.77095,98.443203 426.01676,98.3687151 426.240223,98.2122905 C426.463687,98.0558659 426.575419,97.8286771 426.575419,97.5307263 C426.575419,97.3519553 426.631285,97.1322167 426.743017,96.8715084 C426.854749,96.6108 427.007448,96.361267 427.201117,96.122905 C427.394786,95.884543 427.629423,95.6834257 427.905028,95.5195531 C428.180632,95.3556798 428.489759,95.273743 428.832402,95.273743 C429.502793,95.273743 430.039106,95.4413408 430.441341,95.7765363 C430.843575,96.1117318 431.029794,96.5325877 431,97.0391061 C431,97.2923643 430.925512,97.5270011 430.776536,97.7430168 C430.62756,97.9590317 430.437616,98.1675978 430.206704,98.3687151 C429.975792,98.5698324 429.729982,98.7709497 429.469274,98.972067 C429.208565,99.1731844 428.962755,99.3817497 428.731844,99.5977654 C428.500932,99.8137803 428.307263,100.048418 428.150838,100.301676 C427.994413,100.554934 427.908753,100.830541 427.893855,101.128492 L427.916201,101.977654 C427.916201,102.201117 428.020484,102.413408 428.22905,102.614525 C428.437616,102.815642 428.713222,102.923649 429.055866,102.938547 C429.39851,102.92365 429.670391,102.811918 429.871508,102.603352 C430.072626,102.394786 430.165736,102.156425 430.150838,101.888268 L430.150838,101.351955 L430.150838,101.351955 Z" id="ic_?"></path>
            </g>
        </g>
    </g>
</svg>