<?xml version="1.0" encoding="UTF-8"?>
<svg width="48px" height="48px" viewBox="0 0 48 48" version="1.1" xmlns="http://www.w3.org/2000/svg" xmlns:xlink="http://www.w3.org/1999/xlink">
    <title>ic_Claimable</title>
    <g id="3-19" stroke="none" stroke-width="1" fill="none" fill-rule="evenodd">
        <g id="Portfolio" transform="translate(-760.000000, -736.000000)" fill="#FFB483">
            <g id="编组-3备份-3" transform="translate(740.000000, 716.000000)">
                <g id="ic_Claimable" transform="translate(20.000000, 20.000000)">
                    <rect id="矩形" opacity="0.100000001" x="0" y="0" width="48" height="48" rx="8"></rect>
                    <g id="索赔" transform="translate(13.000000, 12.000000)" fill-rule="nonzero">
                        <path d="M6.3888903,1.9230768 L6.3888903,3.20512901 L6.3888903,3.20504455 C6.38889035,3.53002951 6.63127466,3.80359319 6.95294433,3.84165809 L7.02777789,3.84615515 L15.9722323,3.84615515 L15.9722323,3.84615515 C16.296134,3.84611228 16.5687529,3.60288143 16.606649,3.28013054 L16.6111212,3.20513055 L16.6111212,1.9230768 L21.0833334,1.9230768 L21.0833333,1.9230768 C22.1418784,1.9230768 23,2.78406988 23,3.84615515 L23,23.0769232 L23,23.0769232 C23,24.1390085 22.1418784,25 21.0833333,25 L1.91666674,25 L1.91666666,25 C0.858121611,25 0,24.1390085 0,23.0769232 C0,23.0769232 0,23.0769232 0,23.0769232 L0,3.84615515 L0,3.84615544 C0,2.78407017 0.858121611,1.9230768 1.91666666,1.9230768 L6.38887888,1.9230768 L6.3888903,1.9230768 Z M17.372678,9.91601501 L17.2813168,9.96345101 L17.1937889,10.0198612 L10.1468345,16.799999 L6.61570564,12.8384607 L6.53903897,12.7679478 L6.53903896,12.7679478 C6.02923258,12.3365867 5.26743545,12.4015626 4.83751215,12.9130728 C4.45895251,13.3634724 4.4582128,14.0218227 4.83576086,14.4730757 L4.90987207,14.5551271 L9.07350096,19.2282037 C9.18211217,19.3826908 9.31627884,19.5025628 9.46577973,19.5891021 L9.46577962,19.5891021 C10.0031381,19.9136183 10.6986305,19.7716054 11.0668342,19.262179 L11.1179454,19.185256 L18.5769831,12.0064102 L18.6600386,11.9429487 L18.6600386,11.9429487 C19.1728577,11.5152024 19.2429807,10.7513322 18.8166596,10.236795 C18.4647895,9.81211652 17.8712098,9.67993504 17.3733167,9.91538274 L17.372678,9.91601501 Z M14.6944568,0 L14.6944568,0 C15.0473061,0 15.3333447,0.286996978 15.3333447,0.6410246 C15.3333447,0.641024608 15.3333447,0.641024622 15.3333447,0.64102463 L15.3333447,1.92307683 L15.3333447,1.92307686 C15.3333447,2.27710629 15.0473043,2.56410146 14.6944568,2.56410146 C14.6944568,2.56410146 14.6944568,2.56410146 14.6944568,2.56410146 L8.30557787,2.56410146 L8.30557784,2.56410146 C7.95272849,2.56410146 7.66668995,2.27710449 7.66668995,1.92307686 C7.66668995,1.92307686 7.66668995,1.92307684 7.66668995,1.92307683 L7.66668995,0.64102463 L7.66668995,0.641024697 C7.66668995,0.286995271 7.95273029,0 8.30557784,0 C8.30557785,0 8.30557786,0 8.30557787,0 L14.6944568,0 L14.6944568,0 Z" id="形状"></path>
                    </g>
                </g>
            </g>
        </g>
    </g>
</svg>