<?xml version="1.0" encoding="UTF-8"?>
<svg width="48px" height="48px" viewBox="0 0 48 48" version="1.1" xmlns="http://www.w3.org/2000/svg" xmlns:xlink="http://www.w3.org/1999/xlink">
    <title>ic_Leveraged</title>
    <g id="3-19" stroke="none" stroke-width="1" fill="none" fill-rule="evenodd">
        <g id="Portfolio" transform="translate(-760.000000, -846.000000)" fill="#B672F7">
            <g id="编组-3备份-2" transform="translate(740.000000, 826.000000)">
                <g id="ic_Leveraged" transform="translate(20.000000, 20.000000)">
                    <rect id="矩形" opacity="0.100000001" x="0" y="0" width="48" height="48" rx="8"></rect>
                    <g id="杠杆" transform="translate(13.000000, 13.000000)" fill-rule="nonzero">
                        <path d="M18.7278297,3.46860841 L0,3.46860841 L0,18.7126214 C0,21.0796117 1.91357627,23 4.27217027,23 L18.7278297,23 C21.0864237,23 23,21.0796117 23,18.7126214 L23,7.75598706 C23,5.38899676 21.0938407,3.46860841 18.7278297,3.46860841 L18.7278297,3.46860841 Z M16.324734,11.9614887 C16.324734,11.9614887 16.324734,11.968932 16.324734,11.9614887 L13.3950339,15.5640777 C13.1947759,15.8097087 12.8906804,15.9511327 12.571751,15.9585761 C12.2528217,15.9585761 11.9561432,15.8171521 11.7484682,15.571521 L10.1464044,13.6436893 L7.93614963,15.6757282 C7.73589165,15.8469256 7.48371493,15.936246 7.22412125,15.9288026 C6.92744276,15.936246 6.64559819,15.8171521 6.43792325,15.6087379 C6.03740729,15.1770227 6.06707514,14.492233 6.49725895,14.0902913 L9.53821348,11.3064725 C9.97581425,10.9045307 10.6507578,10.9343042 11.0438568,11.3734628 C11.0586907,11.3883495 11.0661077,11.4032362 11.0809416,11.4106796 L12.5569171,13.1970874 L14.6633344,10.6067961 C15.0341825,10.1453074 15.7091261,10.0783172 16.1689777,10.4504854 C16.6288294,10.8300971 16.702999,11.5 16.324734,11.9614887 L16.324734,11.9614887 Z M14.744921,2.14368932 L1.06804257,2.14368932 C0.474685585,2.14368932 0,1.66731392 0,1.07184466 C0,0.476375405 0.482102548,0 1.06804257,0 L14.744921,0 C15.338278,0 15.8129636,0.476375405 15.8129636,1.07184466 C15.8129636,1.66731392 15.338278,2.14368932 14.744921,2.14368932 Z" id="形状"></path>
                    </g>
                </g>
            </g>
        </g>
    </g>
</svg>