<?xml version="1.0" encoding="UTF-8"?>
<svg width="48px" height="48px" viewBox="0 0 48 48" version="1.1" xmlns="http://www.w3.org/2000/svg" xmlns:xlink="http://www.w3.org/1999/xlink">
    <title>ic_liquiditypool</title>
    <g id="3-19" stroke="none" stroke-width="1" fill="none" fill-rule="evenodd">
        <g id="Portfolio" transform="translate(-760.000000, -625.000000)" fill="#E07BA6">
            <g id="编组-3备份-4" transform="translate(740.000000, 605.000000)">
                <g id="ic_liquiditypool" transform="translate(20.000000, 20.000000)">
                    <rect id="矩形" opacity="0.100000001" x="0" y="0" width="48" height="48" rx="8"></rect>
                    <g id="金块" transform="translate(12.000000, 13.000000)" fill-rule="nonzero">
                        <g id="流动人口">
                            <path d="M19.7732526,12.7470588 C17.4485416,12.7470588 15.5597138,14.5976471 15.5597138,16.8752941 C15.5597138,19.1141176 17.3957072,20.9517647 19.6807925,21.0035294 L19.7864612,21.0035294 C22.1111723,21.0035294 24,19.1529412 24,16.8752941 C23.9867914,14.5976471 22.0979637,12.7470588 19.7732526,12.7470588 Z M4.2135388,12.7470588 C1.88882774,12.7470588 0,14.5976471 0,16.8752941 C0,19.1141176 1.8359934,20.9517647 4.1210787,21.0035294 L4.22674739,21.0035294 C6.55145845,21.0035294 8.44028619,19.1529412 8.44028619,16.8752941 C8.4270776,14.5976471 6.53824986,12.7470588 4.2135388,12.7470588 Z M12.270776,8.26941176 L12.3764447,8.26941176 C14.7011558,8.26941176 16.5899835,6.41882353 16.5899835,4.14117647 C16.5899835,1.86352941 14.7011558,0 12.3764447,0 C10.0517336,0 8.1496973,1.85058824 8.1496973,4.12823529 C8.1496973,6.38 9.9856907,8.20470588 12.270776,8.26941176 Z M4.37204183,11.7505882 C4.72867364,9.64117647 5.9570721,7.81647059 7.68739681,6.65176471 C7.48926802,6.27647059 7.31755641,5.87529412 7.22509631,5.44823529 C4.97963676,6.85882353 3.39460649,9.18823529 3.05118327,11.88 C3.44744084,11.7894118 3.8436984,11.7376471 4.26637314,11.7376471 C4.3059989,11.7505882 4.33241607,11.7505882 4.37204183,11.7505882 Z M19.9053385,11.7505882 C20.3544304,11.7635294 20.8167309,11.8411765 21.2394056,11.9447059 C20.909191,9.31764706 19.4562466,7.05294118 17.3296643,5.61647059 C17.210787,6.03058824 17.0390754,6.43176471 16.8145294,6.80705882 C18.4259769,7.99764706 19.5619152,9.74470588 19.9053385,11.7505882 L19.9053385,11.7505882 Z M15.5993396,19.9682353 C14.5558613,20.4729412 13.3802972,20.7576471 12.1386901,20.7576471 C10.8178316,20.7576471 9.58943313,20.4341176 8.50632911,19.8776471 C8.2421574,20.24 7.93835993,20.5505882 7.59493671,20.8223529 C8.92900385,21.5729412 10.4744084,22 12.1386901,22 C13.736929,22 15.2294992,21.5988235 16.5503577,20.9 C16.1805173,20.6282353 15.8767199,20.3047059 15.5993396,19.9682353 L15.5993396,19.9682353 Z" id="形状"></path>
                        </g>
                    </g>
                </g>
            </g>
        </g>
    </g>
</svg>