<?xml version="1.0" encoding="UTF-8"?>
<svg width="48px" height="48px" viewBox="0 0 48 48" version="1.1" xmlns="http://www.w3.org/2000/svg" xmlns:xlink="http://www.w3.org/1999/xlink">
    <title>ic_vaults</title>
    <g id="3-19" stroke="none" stroke-width="1" fill="none" fill-rule="evenodd">
        <g id="Portfolio" transform="translate(-760.000000, -404.000000)" fill="#7384F7">
            <g id="编组-3" transform="translate(740.000000, 384.000000)">
                <g id="ic_vaults" transform="translate(20.000000, 20.000000)">
                    <rect id="矩形" opacity="0.100000001" x="0" y="0" width="48" height="48" rx="8"></rect>
                    <g id="金块" transform="translate(11.000000, 15.000000)" fill-rule="nonzero">
                        <path d="M16.9180197,5.19200604 L16.2360189,0 L9.15201065,0 L8.47000986,5.19200604 L16.9180197,5.19200604 Z M4.13600481,11.5940135 L12.5840146,11.5940135 L11.9020138,6.42400748 L4.81800561,6.42400748 L4.13600481,11.5940135 Z M12.892015,11.5940135 L21.3400248,11.5940135 L20.658024,6.42400748 L13.5740158,6.42400748 L12.892015,11.5940135 Z M0.682000794,13.2880155 L0,18.4800215 L8.4260098,18.4800215 L7.74400901,13.2880155 L0.682000794,13.2880155 Z M9.41601096,13.2880155 L8.75601019,18.4800215 L17.18202,18.4800215 L16.5000192,13.2880155 L9.41601096,13.2880155 Z M25.2560294,13.2880155 L18.1940212,13.2880155 L17.5120204,18.4800215 L25.9380302,18.4800215 L25.2560294,13.2880155 Z" id="形状"></path>
                    </g>
                </g>
            </g>
        </g>
    </g>
</svg>