<?xml version="1.0" encoding="UTF-8"?>
<svg width="48px" height="48px" viewBox="0 0 48 48" version="1.1" xmlns="http://www.w3.org/2000/svg" xmlns:xlink="http://www.w3.org/1999/xlink">
    <title>ic_wallet</title>
    <g id="3-19" stroke="none" stroke-width="1" fill="none" fill-rule="evenodd">
        <g id="Portfolio" transform="translate(-760.000000, -515.000000)" fill="#F0B6D0">
            <g id="编组-3备份" transform="translate(740.000000, 495.000000)">
                <g id="ic_wallet" transform="translate(20.000000, 20.000000)">
                    <rect id="矩形" opacity="0.100000001" x="0" y="0" width="48" height="48" rx="8"></rect>
                    <g id="金块" transform="translate(12.000000, 12.000000)" fill-rule="nonzero">
                        <g id="理财">
                            <path d="M25,21.5085835 C25,21.855375 24.940345,22.1793495 24.8210352,22.4805097 C24.7017255,22.78167 24.5319383,23.0463268 24.311674,23.2744776 C24.0914097,23.5026292 23.8344356,23.6805867 23.5407489,23.8083526 C23.2470622,23.9361176 22.9258452,24 22.5770925,24 L2.58810573,24 C2.239353,24 1.90895652,23.9361176 1.5969163,23.8083526 C1.28487608,23.6805875 1.00954568,23.5026284 0.77092511,23.2744776 C0.532305344,23.046326 0.344162996,22.78167 0.206497797,22.4805097 C0.0688325991,22.1793495 0,21.855375 0,21.5085835 L0,7.84686014 C0,7.15327989 0.243208427,6.56464852 0.729625551,6.08096604 C1.21604348,5.59728356 1.80800383,5.35544365 2.50550661,5.35544365 L22.4944934,5.35544365 C23.1919962,5.35544365 23.7839565,5.59728436 24.2703744,6.08096604 C24.7567924,6.56464852 25,7.15327989 25,7.84686014 L25,11.5702958 L18.75,11.5702958 C18.0524972,11.5702958 17.4605369,11.8075736 16.9741189,12.2821291 C16.487701,12.7566837 16.2444934,13.3407538 16.2444934,14.0343341 C16.2628488,14.5088887 16.3638031,14.9286896 16.5473568,15.2937314 C16.6941996,15.6040168 16.9374091,15.8869267 17.2769824,16.1424557 C17.6165556,16.3979855 18.1075633,16.5257505 18.75,16.5257505 L25,16.5257505 L25,21.5085835 L25,21.5085835 Z M21.2555066,4.09604631 L8.75550661,4.09604631 C9.74669604,3.58498563 10.6828194,3.09217797 11.5638767,2.61762334 C12.3348018,2.21607547 13.0965501,1.81453027 13.8491189,1.4129824 C14.6016878,1.01143453 15.1890611,0.701149118 15.6112335,0.482123493 C16.2536702,0.135332029 16.827277,-0.0243732651 17.3320485,0.003004938 C17.83682,0.0303831412 18.2635821,0.117080874 18.6123348,0.263097868 C19.0161536,0.463871269 19.3649037,0.728527322 19.6585903,1.05706576 L21.2555066,4.09604631 Z M17.5110132,14.0343341 C17.5110132,13.6875426 17.630323,13.3955102 17.8689427,13.1582316 C18.1075625,12.9209537 18.4012473,12.8023149 18.75,12.8023149 C19.0987527,12.8023149 19.3924367,12.9209537 19.6310573,13.1582316 C19.869677,13.3955094 19.9889868,13.6875426 19.9889868,14.0343341 C19.9889868,14.3811255 19.869677,14.6777218 19.6310573,14.9241257 C19.3924375,15.1705295 19.0987527,15.2937314 18.75,15.2937314 C18.4012473,15.2937314 18.1075633,15.1705295 17.8689427,14.9241257 C17.630323,14.6777218 17.5110132,14.3811255 17.5110132,14.0343341 Z" id="形状"></path>
                        </g>
                    </g>
                </g>
            </g>
        </g>
    </g>
</svg>