<?xml version="1.0" encoding="UTF-8"?>
<svg width="15px" height="15px" viewBox="0 0 15 15" version="1.1" xmlns="http://www.w3.org/2000/svg" xmlns:xlink="http://www.w3.org/1999/xlink">
    <title>ic_view</title>
    <g id="3-19" stroke="none" stroke-width="1" fill="none" fill-rule="evenodd">
        <g id="account弹窗" transform="translate(-840.000000, -512.000000)" fill="#000000" fill-rule="nonzero">
            <g id="编组-3" transform="translate(480.000000, 301.000000)">
                <g id="ic_view" transform="translate(360.000000, 211.000000)">
                    <path d="M13.7383179,8.76715854 C13.3528044,8.76715854 13.0373824,9.0736919 13.0373824,9.44834491 L13.0373824,12.8542694 C13.0373824,13.2629816 12.6869154,13.6376331 12.2313073,13.6376331 L2.20794312,13.6376331 C1.78738152,13.6376331 1.40186798,13.2970407 1.40186798,12.8542694 L1.40186798,3.07925974 C1.40186798,2.67054762 1.75233497,2.29589607 2.20794312,2.29589607 L6.55373927,2.29589607 C6.93925281,2.29589607 7.25467476,1.98936271 7.25467476,1.6147097 C7.25467476,1.24005814 6.93925432,0.933523324 6.55373927,0.933523324 L2.20794312,0.933523324 C0.981306377,0.933523324 0,1.88718395 0,3.07925681 L0,12.8542665 C0,14.0122817 0.981309392,15 2.20794312,15 L12.2663523,15 C13.457941,15 14.4742954,14.0463394 14.4742954,12.8542665 L14.4742954,9.44834198 C14.4392487,9.07369043 14.1238284,8.76715561 13.7383134,8.76715561 L13.7383179,8.76715854 Z M14.9299066,3.18142824 C14.9299066,3.147369 14.9299066,3.147369 14.9649533,3.11330961 C14.9649533,3.07925036 14.9649533,3.07925036 15,3.04519097 L15,2.97707233 L15,2.90895369 L15,2.84083506 L15,2.80677581 L15,2.77271657 L15,2.73865732 L15,2.70459808 C15,2.67053883 15,2.67053883 14.9649533,2.63647944 C14.9649533,2.60242019 14.9649533,2.60242019 14.9299066,2.5683608 C14.9299066,2.53430156 14.8948599,2.53430156 14.8948599,2.50024216 C14.8948599,2.46618292 14.8598132,2.46618292 14.8598132,2.43212353 L14.8247665,2.39806428 C14.8247665,2.36400504 14.7897198,2.36400504 14.7897198,2.36400504 L14.7546731,2.32994579 L14.7196264,2.29588655 L11.2850465,0.0820377957 C10.9696261,-0.0882591634 10.514018,0.0139191585 10.3037372,0.320452953 C10.0934564,0.626986307 10.1635502,1.06975752 10.514018,1.27411358 L12.4415857,2.50024846 C7.25466331,3.72638335 5.74765116,7.98379121 5.71260612,10.2998275 C5.71260612,10.6744791 6.02802657,10.9810139 6.41354162,10.9810139 C6.79905516,10.9810139 7.11447711,10.6744805 7.11447711,10.2998275 C7.11447711,10.0614124 7.25466406,5.02063057 12.8621503,3.79449715 L11.4602808,5.83805773 C11.25,6.14459108 11.3200939,6.5873623 11.6705616,6.79171836 C11.7757018,6.85983699 11.9158889,6.89389624 12.0560751,6.89389624 C12.2663559,6.89389624 12.5116833,6.79171836 12.6518695,6.58736288 L14.9299027,3.24955362 L14.9299027,3.21549437 L14.9299027,3.18143513 L14.9299066,3.18142824 Z" id="形状"></path>
                </g>
            </g>
        </g>
    </g>
</svg>