<svg xmlns="http://www.w3.org/2000/svg" viewBox="0 0 201 240" fill="none">
    <path d="M50.3 29.9006L0 59.9006V119.701V179.401L50.5 209.601L100.9 239.701L147.2 212.101C172.7 196.901 195.2 183.401 197.3 182.101L201 179.701V119.401L200.9 59.2006L151.4 29.7006C124.2 13.5006 101.6 0.100558 101.2 0.000557952C100.8 -0.099442 77.9 13.3006 50.3 29.9006ZM144.5 38.7006C166.2 51.6006 184 62.5006 184 62.8006C184 63.2006 177.4 67.4006 169.4 72.2006C156.5 79.9006 154.5 80.8006 152.6 79.8006C151.5 79.1006 139.9 72.2006 127 64.4006L103.5 50.2006L103.2 32.4006C103 20.6006 103.3 14.6006 104 14.9006C104.5 15.0006 122.7 25.8006 144.5 38.7006ZM97 32.9006L96.9 50.2006L71.6 65.3006L46.4 80.4006L32.5 72.1006C24.8 67.6006 18.4 63.5006 18.3 63.0006C18.1 62.3006 94.6 15.8006 96.3 15.7006C96.7 15.7006 97 23.5006 97 32.9006ZM124.5 70.2006C137.4 77.9006 147.9 84.4006 147.9 84.7006C148 85.6006 101.1 112.901 100.2 112.501C95.7 110.701 53.1 84.2006 53.7 83.6006C55.3 82.1006 99.5 55.8006 100.2 56.0006C100.6 56.1006 111.5 62.5006 124.5 70.2006ZM26.4 81.7006L39 89.2006V121.801V154.501L25.5 162.501C18.1 166.901 12 170.201 12 169.901C12 168.001 12 75.1006 12 74.4006C12 73.2006 12.4 73.4006 26.4 81.7006ZM190 122.601V171.601L175.5 162.901L161 154.301L161.2 122.301L161.5 90.2006L175 82.0006C182.4 77.5006 188.8 73.7006 189.3 73.7006C189.7 73.7006 190 95.7006 190 122.601ZM87.8 118.501L95 122.901V153.701V184.401L70 169.501L45 154.601V123.701V92.8006L62.8 103.401C72.5 109.201 83.8 116.001 87.8 118.501ZM155 124.101V154.601L131.6 168.601C118.7 176.401 107.7 182.701 107.1 182.701C106.3 182.701 106 173.801 106 152.901V123.201L130.3 108.501C143.6 100.501 154.6 93.9006 154.8 93.8006C154.9 93.7006 155 107.401 155 124.101ZM68.9 176.301L95 191.901V207.301C95 215.901 94.7 222.601 94.3 222.401C91.7 221.001 22.8 179.901 19.7 178.001L15.8 175.601L28.2 168.201C34.9 164.101 41 160.801 41.6 160.701C42.3 160.701 54.5 167.701 68.9 176.301ZM172.2 168.301C179.3 172.501 184.8 176.301 184.3 176.701C182.9 177.801 109.2 221.701 107.5 222.301C106.1 222.901 106 221.101 106.2 207.101L106.5 191.201L131.9 175.901C145.9 167.601 157.7 160.701 158.3 160.701C158.8 160.701 165 164.101 172.2 168.301Z" fill="black" />
</svg>