<svg width="32" height="32" viewBox="0 0 32 32" fill="none" xmlns="http://www.w3.org/2000/svg">
<path d="M9.17383 27.8928L13.3365 28.9972V27.553L13.6763 27.2132H16.0549V30.1015H13.5064L10.3631 28.7423L9.17383 27.8928Z" fill="#CDBDB2"/>
<path d="M22.7668 27.8928L18.6891 28.9972V27.553L18.3493 27.2132H15.9707V30.1015H18.5192L21.6623 28.7423L22.7668 27.8928Z" fill="#CDBDB2"/>
<path d="M13.6777 24.7501L13.3379 27.5534L13.7626 27.2136H18.18L18.6897 27.5534L18.3499 24.7501L17.6703 24.3252L14.2723 24.4103L13.6777 24.7501Z" fill="#171717"/>
<path d="M11.3828 5.80533L13.4216 10.5626L14.3562 24.4097H17.6692L18.6886 10.5626L20.5575 5.80533H11.3828Z" fill="#F6851B"/>
<path d="M2.46457 16.2549L0.0859375 23.1359L6.03251 22.7961H9.85524V19.8229L9.68533 13.7064L8.83582 14.386L2.46457 16.2549Z" fill="#F6851B"/>
<path d="M6.9668 17.0195L13.9328 17.1894L13.1683 20.7574L9.85513 19.9079L6.9668 17.0195Z" fill="#CD6115"/>
<path d="M6.9668 17.1045L9.85513 19.8229V22.5413L6.9668 17.1045Z" fill="#E47520"/>
<path d="M9.85352 19.9076L13.2516 20.7571L14.356 24.41L13.5914 24.8347L9.85352 22.626V19.9076Z" fill="#F6851B"/>
<path d="M9.85344 22.6263L9.17383 27.8933L13.6763 24.7502L9.85344 22.6263Z" fill="#E4761A"/>
<path d="M13.9315 17.1895L14.3564 24.4104L13.082 20.715L13.9315 17.1895Z" fill="#E47520"/>
<path d="M5.94531 22.7113L9.85306 22.6263L9.17345 27.8933L5.94531 22.7113Z" fill="#CD6115"/>
<path d="M1.95486 30.1869L9.17563 27.8932L5.94749 22.7112L0.0859375 23.1359L1.95486 30.1869Z" fill="#E4761A"/>
<path d="M13.4231 10.5631L9.77026 13.6214L6.9668 17.0194L13.9328 17.2744L13.4231 10.5631Z" fill="#E4761A"/>
<path d="M9.17383 27.8934L13.6763 24.7503L13.3365 27.4687V28.9979L10.2783 28.4031L9.17383 27.8934ZM22.766 27.8934L18.3485 24.7503L18.6883 27.4687V28.9979L21.7466 28.4031L22.766 27.8934Z" fill="#DFCEC3"/>
<path d="M12.0642 18.7188L12.9987 20.6727L9.68555 19.8232L12.0642 18.7188Z" fill="#243447"/>
<path d="M1.86914 1.81311L13.4225 10.563L11.4687 5.80573L1.86914 1.81311Z" fill="#E4761A"/>
<path d="M1.86896 1.81314L0.339844 6.48537L1.18935 11.5824L0.594772 11.9222L1.44428 12.6869L0.764674 13.2815L1.69906 14.131L1.10448 14.6407L2.4637 16.3397L8.83495 14.3859C11.9498 11.894 13.4789 10.6197 13.4223 10.563C13.3657 10.5064 9.51456 7.58981 1.86896 1.81314Z" fill="#763D16"/>
<path d="M29.4766 16.2549L31.8552 23.1359L25.9087 22.7961H22.0859V19.8229L22.2558 13.7064L23.1053 14.386L29.4766 16.2549Z" fill="#F6851B"/>
<path d="M24.9758 17.0195L18.0098 17.1894L18.7743 20.7574L22.0874 19.9079L24.9758 17.0195Z" fill="#CD6115"/>
<path d="M24.9743 17.1045L22.0859 19.8229V22.5413L24.9743 17.1045Z" fill="#E47520"/>
<path d="M22.0884 19.9076L18.6904 20.7571L17.5859 24.41L18.3506 24.8347L22.0884 22.626V19.9076Z" fill="#F6851B"/>
<path d="M22.0875 22.6263L22.7671 27.8933L18.3496 24.835L22.0875 22.6263Z" fill="#E4761A"/>
<path d="M18.0108 17.1895L17.5859 24.4104L18.8603 20.715L18.0108 17.1895Z" fill="#E47520"/>
<path d="M25.9937 22.7113L22.0859 22.6263L22.7655 27.8933L25.9937 22.7113Z" fill="#CD6115"/>
<path d="M29.9883 30.1869L22.7676 27.8932L25.9957 22.7112L31.8573 23.1359L29.9883 30.1869Z" fill="#E4761A"/>
<path d="M18.5195 10.5631L22.1723 13.6214L24.9758 17.0194L18.0098 17.2744L18.5195 10.5631Z" fill="#E4761A"/>
<path d="M19.8779 18.7188L18.9434 20.6727L22.2565 19.8232L19.8779 18.7188Z" fill="#243447"/>
<path d="M30.0729 1.81311L18.5195 10.563L20.4733 5.80573L30.0729 1.81311Z" fill="#E4761A"/>
<path d="M30.0724 1.81311L31.6016 6.48534L30.752 11.5824L31.3466 11.9222L30.4971 12.6868L31.1767 13.2814L30.2423 14.1309L30.8369 14.6406L29.4777 16.3397L23.1065 14.3859C19.9916 11.894 18.4625 10.6196 18.5191 10.563C18.5757 10.5064 22.4268 7.58978 30.0724 1.81311Z" fill="#763D16"/>
</svg>
