<?xml version="1.0" encoding="UTF-8"?>
<svg width="64px" height="64px" viewBox="0 0 64 64" version="1.1" xmlns="http://www.w3.org/2000/svg" xmlns:xlink="http://www.w3.org/1999/xlink">
    <title>ic_unstaked</title>
    <g id="3-19" stroke="none" stroke-width="1" fill="none" fill-rule="evenodd">
        <g id="Stake-nft-1" transform="translate(-1182.000000, -440.000000)" fill="#545FA4">
            <g id="编组-4备份-2" transform="translate(1005.000000, 372.000000)">
                <g id="ic_unstaked" transform="translate(177.000000, 68.000000)">
                    <rect id="矩形" opacity="0.100000001" x="0" y="0" width="64" height="64" rx="8"></rect>
                    <g id="支撑类" transform="translate(18.625520, 20.347375)" fill-rule="nonzero">
                        <path d="M21.4212937,14.7868467 C21.0284217,14.7868467 20.6355487,14.7868467 20.2426762,14.9192619 L20.2426763,14.9192619 C19.8442495,15.0804055 19.4520514,15.2570892 19.0669481,15.4489226 C17.1690299,16.3110903 14.7482448,17.3704117 12.9832104,17.3704117 C12.2610205,17.3704117 11.3481704,17.17326 10.432431,16.840751 C10.3024366,17.7029186 10.1724422,18.5650914 10.1060003,19.3595825 C10.1060003,19.8892432 10.039559,20.3541653 9.9731171,20.7514108 L9.90956456,20.883826 C9.82290147,21.1927946 9.70735117,21.4723391 9.5802456,21.7430557 L9.32025681,22.2756595 C10.6288687,21.7459988 11.9374756,21.3487533 12.9832094,21.3487533 C14.7482438,21.3487533 17.1719182,22.4757513 19.1305224,23.3379241 L19.9595972,23.7145718 L20.3062491,23.8675848 L20.3755793,23.8675848 C20.7655625,23.9352635 21.0948799,24 21.4877524,24 C24.0385319,24 26,22.0108292 26,19.4243211 C26,16.8407561 23.9720875,14.7868467 21.421308,14.7868467 L21.4212937,14.7868467 Z M7.98566222,7.03911052 C7.78922647,8.43093887 7.46279532,9.8227724 6.93992841,10.7526218 C6.08774407,12.3416039 3.92983713,13.9305861 2.23124202,15.1929424 C2.01169571,15.3694958 1.7921499,15.5460497 1.57549139,15.7020053 L1.24906125,15.9226974 L1.24906125,15.987434 C0.989072463,16.2522643 0.789747895,16.5847712 0.593310624,16.9172833 C-0.648856901,19.1712845 0.136886089,22.0196798 2.22835066,23.1466933 C4.38914693,24.4061065 7.19991517,23.6116175 8.44208269,21.4223529 L8.44208263,21.422353 C8.63424633,21.0881919 8.78834758,20.7327854 8.90139599,20.3630316 C8.94472743,20.1423394 8.95917138,19.8627965 8.98517026,19.5626542 L9.03139048,19.1036148 C9.22782623,16.9849719 9.55425739,14.3307821 10.4064417,12.8065489 C10.7993137,12.144473 11.3886205,11.4823971 12.1079262,10.8173781 L10.5422148,9.65212451 L9.69003044,8.98121922 L8.85517699,8.3485695 L8.85517698,8.3485695 C8.84159196,8.33570055 8.83420533,8.31742762 8.83495565,8.29854599 C8.66162996,8.07785385 8.45941606,7.82773658 8.28608986,7.56585039 L8.05209995,7.17154748 L7.9856586,7.03911052 L7.98566222,7.03911052 Z M21.4848691,17.5705138 C22.5334923,17.5705138 23.316348,18.3650049 23.316348,19.4243263 C23.316348,20.4865908 22.4670529,21.2810819 21.4848691,21.2810819 L21.4848691,21.2810819 C20.4789563,21.3218967 19.6310221,20.5243447 19.5909524,19.4996995 C19.5508838,18.4750543 20.3338551,17.6113297 21.339768,17.5705138 C21.3881159,17.5685521 21.4365214,17.5685521 21.4848691,17.5705138 L21.4848691,17.5705138 Z M3.01408756,18.3061525 C3.53695446,17.4469228 4.64912759,17.1144159 5.49842261,17.6440766 C6.35060695,18.1737373 6.67704014,19.3036785 6.15417323,20.1629082 L6.15417323,20.1629082 C5.68102867,21.0366259 4.60213157,21.3542155 3.74438184,20.8722552 C3.71918324,20.8580965 3.69432663,20.8433151 3.66983412,20.8279243 C2.81764977,20.2982636 2.49121658,19.1712656 3.01408349,18.3090928 L3.01408756,18.3061525 Z M16.9696967,2.29860575 C15.7275291,0.0446045868 12.9167609,-0.685147875 10.6923892,0.709623613 L10.6923892,0.70962361 C8.5235445,1.93991579 7.74446169,4.72820703 8.95226195,6.93743014 C8.96494579,6.96063068 8.97782758,6.98371835 8.99090578,7.00669052 C9.19311916,7.34214213 9.43577554,7.65405591 9.71309573,7.93359677 L10.3832879,8.46325748 C10.501727,8.55153444 10.6259443,8.63981088 10.7588275,8.72808784 L11.8190029,9.52257891 C13.2691614,10.6230939 14.7857644,11.8854553 15.4675139,13.103675 C15.8603859,13.7657509 16.1203752,14.6926571 16.3168089,15.6225065 L17.5012,15.1428693 L19.5204446,14.2512754 C19.6533278,14.1924241 19.7833222,14.1424007 19.9133166,14.0982625 C19.9797579,14.0305838 19.9797579,14.0305838 20.0461998,14.0305838 C20.3495199,13.9423069 20.6557313,13.8834561 20.9619392,13.8540304 L21.4183637,13.8334325 L21.5483581,13.8334325 C20.4390743,12.9712649 19.4568905,11.9766769 18.9340287,11.0497706 C18.2696152,9.86392031 17.9662915,7.9541986 17.7409696,6.16511954 L17.5589774,4.68501268 C17.515646,4.3760441 17.5012021,4.09649963 17.478092,3.825783 L17.428983,3.42559485 L17.428983,3.35791621 L17.428983,3.35791641 C17.3156299,2.9882784 17.1615434,2.6329071 16.9696697,2.29859498 L16.9696967,2.29860575 Z M12.0645766,3.02835821 C12.9167609,2.4986975 14.028934,2.8282644 14.5489116,3.69043411 C15.0746678,4.55260175 14.7482362,5.67960491 13.8960503,6.20926563 C13.0467553,6.73892634 11.9316928,6.40935945 11.4117153,5.54718974 L11.4117152,5.5471896 C10.9033355,4.69045305 11.1730399,3.57613277 12.0141122,3.05828597 C12.0307711,3.04802918 12.0475941,3.03805154 12.0645743,3.02835699 L12.0645766,3.02835821 Z" id="形状"></path>
                    </g>
                </g>
            </g>
        </g>
    </g>
</svg>