<?xml version="1.0" encoding="UTF-8"?>
<svg width="21px" height="25px" viewBox="0 0 21 25" version="1.1" xmlns="http://www.w3.org/2000/svg" xmlns:xlink="http://www.w3.org/1999/xlink">
    <title>ic_wrong network</title>
    <g id="3-19" stroke="none" stroke-width="1" fill="none" fill-rule="evenodd">
        <g id="导航栏样式" transform="translate(-984.000000, -287.000000)" fill="#FFFFFF" fill-rule="nonzero">
            <g id="编组备份-4" transform="translate(0.000000, 240.000000)">
                <g id="ic_wrong-network" transform="translate(984.000000, 47.000000)">
                    <path d="M10.498462,4.95443592 C15.4089736,4.95443592 19.3895806,8.97588443 19.3895806,13.9367243 L19.3895806,20.49668 L19.3895806,20.4966818 C19.3887309,20.9944873 18.9892845,21.3974773 18.4970747,21.3971042 L2.49981849,21.3971042 L2.49981851,21.3971042 C2.00770093,21.3973479 1.60839438,20.994394 1.60754586,20.4966792 L1.60754586,13.9365161 C1.60754586,8.97588363 5.58815287,4.95443592 10.4984594,4.95443592 L10.498462,4.95443592 Z M9.71926471,0 L11.2778643,0 C11.4018858,0 11.5018622,0.0997915248 11.5018622,0.225016155 L11.5018622,2.92743108 L11.5018622,2.92743374 C11.5021015,3.05157724 11.4027894,3.15241185 11.280042,3.15265495 C11.2796827,3.15265495 11.2793233,3.15265495 11.278964,3.15265495 L9.71815978,3.15265495 L9.71815977,3.15265495 C9.59519087,3.15252564 9.49550484,3.0517984 9.49526459,2.92743115 L9.49526459,0.225016224 L9.49526459,0.225015232 C9.49517984,0.100828696 9.59465203,8.58700878e-05 9.71744225,0 C9.71768176,0 9.71792128,0 9.71816079,0 L9.71926309,0 L9.71926471,0 Z M1.16829506,3.48186767 L1.16829507,3.48186766 C1.25528441,3.39359234 1.39655967,3.39335226 1.48384227,3.48133094 C1.48401947,3.48150955 1.48419638,3.48168847 1.48437298,3.48186768 L3.37440572,5.39248961 L3.37440573,5.39248962 C3.46133432,5.48030008 3.46141994,5.62275541 3.37459687,5.71067166 C3.37453319,5.71073614 3.37446947,5.71080059 3.37440572,5.71086499 L2.27254244,6.82632348 L2.27254244,6.82632348 C2.18546928,6.91408287 2.04461443,6.91408287 1.95754126,6.82632348 L0.0653551888,4.91482005 L0.065355181,4.91482005 C-0.0216300581,4.82706688 -0.0218074514,4.68461155 0.0649587687,4.596638 C0.0650907451,4.59650419 0.0652228872,4.59637054 0.0653551964,4.59623707 L1.16939743,3.48075265 L1.16829513,3.48186749 L1.16829506,3.48186767 Z M19.8305771,3.48186767 L20.9348501,4.59644466 L20.9348501,4.59644465 C21.0217166,4.68430697 21.0217166,4.82675142 20.9348501,4.91461373 L19.0426384,6.82632457 L19.0426384,6.82632457 C18.9555417,6.91422189 18.8145289,6.91422189 18.7274321,6.82632458 L17.6220569,5.71084016 L17.6220569,5.71084014 C17.5351283,5.62302968 17.5350427,5.48057408 17.6218658,5.3926581 C17.6219294,5.39259361 17.6219932,5.39252917 17.6220569,5.39246476 L19.5142686,3.48098727 L19.5142686,3.48098729 C19.6013418,3.3932279 19.7421966,3.3932279 19.8292698,3.48098724 L19.8305772,3.48186874 L19.8305771,3.48186767 Z M1.57999094,23.198006 L19.416933,23.198006 L19.416933,23.198006 C19.9094812,23.1977626 20.3089647,23.6013953 20.3092056,24.0995456 C20.3092056,24.0995457 20.3092056,24.0995458 20.3092056,24.0995458 L20.3092056,24.7760959 C20.3092056,24.8991168 20.2092297,24.9999983 20.0852082,24.9999983 L0.911690058,24.9999983 L0.911690049,24.9999983 C0.788461985,25.0004836 0.688175585,24.8998461 0.687692623,24.7752165 C0.687692623,24.7750688 0.687692623,24.7749212 0.687692623,24.7747736 L0.687692623,24.0984569 L0.687692623,24.0984578 C0.68841367,23.6005953 1.08792972,23.1975197 1.58019598,23.198006 L1.57999094,23.198006 Z M5.70517857,14.274753 L5.70517857,21.3971307 L7.48887791,21.3971307 L7.48887791,14.274753 L5.70520421,14.274753 L5.70517857,14.274753 Z" id="形状"></path>
                </g>
            </g>
        </g>
    </g>
</svg>